<?xml version="1.0" encoding="UTF-8"?>
<svg xmlns="http://www.w3.org/2000/svg" version="1.1" viewBox="0 0 480 345">
  <defs>
    <style>
      .cls-1 {
        fill: #fff;
      }
    </style>
  </defs>
  <!-- Generator: Adobe Illustrator 28.7.2, SVG Export Plug-In . SVG Version: 1.2.0 Build 154)  -->
  <g>
    <g id="Livello_1">
      <g id="partialy-cloud">
        <path d="M214.84,298.11h197.81c20.87,0,37.79-16.92,37.79-37.79s-27.02-50.54-27.02-51.81c0-27.44-45.02-58.1-47.64-57.68-8.91-37.47-45.76-60.16-85.97-60.16-47.02,0-105.02,51.85-105.02,98.87,0,.54.03,1.09.05,1.63-23.57,5.92-31.69,36.73-31.69,62.13,0,29.99,25.71,59.59,55.69,59.59l12.93-14.77"/>
        <path d="M375.2,303.5h64c20.87,0,37.79-16.92,37.79-37.79s-16.92-37.79-37.79-37.79h-2.42c.09-1.25.16-2.48.16-3.74,0-27.44-22.24-49.67-49.67-49.67-2.73,0-5.4.22-8.03.65-8.91-37.47-42.58-65.34-82.79-65.34-47.02,0-85.12,38.11-85.12,85.12,0,.54.03,1.09.05,1.63-23.57,5.92-41.03,27.25-41.03,52.66,0,29.99,24.3,54.28,54.28,54.28h26.63"/>
        <path d="M439.21,303.5c20.87,0,37.79-16.92,37.79-37.79s-16.92-37.79-37.79-37.79h-2.42c.09-1.25.16-2.48.16-3.74,0-27.44-22.24-49.67-49.67-49.67-2.73,0-5.4.22-8.03.65-8.91-37.47-42.58-65.34-82.79-65.34-47.02,0-85.12,38.11-85.12,85.12,0,.54.03,1.09.05,1.63-23.57,5.92-41.03,27.25-41.03,52.66,0,29.99,24.3,54.28,54.28,54.28h214.56Z"/>
        <path class="cls-1" d="M439.21,306.5c17.68-.1,33.63-11.74,38.95-28.63,5.37-17.05-1.44-35.9-16.1-45.94-7.58-5.19-16.22-7.01-25.27-7.01l3,3c.88-12.23-2.57-24.69-9.84-34.6-7.03-9.58-17.06-16.71-28.54-19.9-7.49-2.08-15.29-2.36-22.96-1.16l3.69,2.1c-3.95-16.44-12.69-31.62-24.95-43.27s-27.92-19.76-44.61-22.8-34.42-1.27-50.22,5.39c-15.07,6.35-28.09,16.82-37.64,30.08s-15.25,29.54-16.23,46.02c-.13,2.26-.19,4.52-.11,6.78l2.2-2.89c-19.81,5.06-35.87,20.74-41.23,40.5s.31,40.88,14.5,55.27c10.92,11.08,25.9,17.06,41.39,17.06,4.98,0,9.97,0,14.95,0h199.01c3.86,0,3.87-6,0-6h-36.92c-12.38,0-24.76,0-37.14,0-13.98,0-27.97,0-41.95,0h-94.88c-1.2,0-2.39,0-3.59,0-7.69-.02-15.36-1.66-22.3-5.03-16.59-8.07-27.99-24.76-29-43.25-1.06-19.33,8.96-37.92,25.78-47.55,4.08-2.34,8.42-4.05,12.97-5.22,1.24-.32,2.25-1.6,2.2-2.89-.56-15.65,3.97-31.46,12.17-44.75s19.45-23.39,32.95-30.24c14.15-7.18,30.27-9.95,46.03-8.28,15.68,1.66,30.93,8.12,43.07,18.18,12.19,10.1,21.42,23.59,26.17,38.71.6,1.9,1.12,3.83,1.59,5.77.41,1.7,2.13,2.34,3.69,2.1,11.36-1.78,23.1.78,32.73,7.03,8.6,5.58,15.29,14.1,18.62,23.81,2.11,6.15,2.87,12.56,2.4,19.04-.12,1.62,1.47,3,3,3,3.02,0,6.01.02,8.98.61,3.63.72,7.12,1.96,10.35,3.77,6.44,3.6,11.55,9.15,14.69,15.82,6.51,13.81,2.69,30.64-8.61,40.69-6.31,5.62-14.58,8.63-23,8.68-3.86.02-3.87,6.02,0,6Z"/>
      </g>
    </g>
  </g>
</svg>