<?xml version="1.0" encoding="UTF-8"?>
<svg xmlns="http://www.w3.org/2000/svg" version="1.1" viewBox="0 0 480 345">
  <defs>
    <style>
      .cls-1 {
        fill: #fff;
      }
    </style>
  </defs>
  <!-- Generator: Adobe Illustrator 28.7.2, SVG Export Plug-In . SVG Version: 1.2.0 Build 154)  -->
  <g>
    <g id="Livello_2">
      <g id="night">
        <path class="cls-1" d="M216.73,64.77h208.57c9.56,0,19.17.23,28.73,0h.43c4.56,0,8.94-4.01,8.72-8.72s-3.84-8.72-8.72-8.72h-208.57c-9.56,0-19.17-.23-28.73,0h-.43c-4.56,0-8.94,4.01-8.72,8.72s3.84,8.72,8.72,8.72h0Z"/>
        <path class="cls-1" d="M248.44,97.43h167.25c7.7,0,15.43.21,23.13,0h.33c4.56,0,8.94-4.01,8.72-8.72-.21-4.71-3.84-8.72-8.72-8.72h-167.25c-7.7,0-15.43-.21-23.13,0h-.33c-4.56,0-8.94,4.01-8.72,8.72s3.84,8.72,8.72,8.72h0Z"/>
        <path class="cls-1" d="M286.3,128.84h147.96c6.86,0,13.74.21,20.59,0h.31c4.56,0,8.94-4.01,8.72-8.72s-3.84-8.72-8.72-8.72h-147.96c-6.86,0-13.74-.21-20.59,0h-.31c-4.56,0-8.94,4.01-8.72,8.72s3.84,8.72,8.72,8.72h0Z"/>
        <path class="cls-1" d="M320.57,161.87h146.7c4.56,0,8.94-4.01,8.72-8.72s-3.84-8.72-8.72-8.72h-146.7c-4.56,0-8.94,4.01-8.72,8.72s3.84,8.72,8.72,8.72h0Z"/>
        <path class="cls-1" d="M349.01,194.88h96.53c4.56,0,8.94-4.01,8.72-8.72s-3.84-8.72-8.72-8.72h-96.53c-4.56,0-8.94,4.01-8.72,8.72s3.84,8.72,8.72,8.72h0Z"/>
        <path class="cls-1" d="M334.14,227.91h86.12c4.56,0,8.94-4.01,8.72-8.72s-3.84-8.72-8.72-8.72h-86.12c-4.56,0-8.94,4.01-8.72,8.72s3.84,8.72,8.72,8.72h0Z"/>
        <path class="cls-1" d="M309.43,260.94h57.03c4.56,0,8.94-4.01,8.72-8.72s-3.84-8.72-8.72-8.72h-57.03c-4.56,0-8.94,4.01-8.72,8.72s3.84,8.72,8.72,8.72h0Z"/>
        <path class="cls-1" d="M326.35,293.97h18.49c2.23,0,4.59-.97,6.16-2.56s2.66-3.99,2.56-6.16c-.21-4.73-3.84-8.72-8.72-8.72h-18.49c-2.23,0-4.59.97-6.16,2.56s-2.66,3.99-2.56,6.16c.21,4.73,3.84,8.72,8.72,8.72h0Z"/>
      </g>
    </g>
  </g>
</svg>