<?xml version="1.0" encoding="UTF-8"?>
<svg xmlns="http://www.w3.org/2000/svg" version="1.1" viewBox="0 0 480 345">
  <defs>
    <style>
      .cls-1 {
        fill: #ffbf1f;
      }
    </style>
  </defs>
  <!-- Generator: Adobe Illustrator 28.7.2, SVG Export Plug-In . SVG Version: 1.2.0 Build 154)  -->
  <g>
    <g id="Livello_2">
      <g id="night">
        <path class="cls-1" d="M477.23,169.04c-.07-27.86-8.65-55.66-24.86-78.37-16.21-22.71-38.76-39.99-64.97-49.61-26.21-9.62-56.2-10.65-83.29-2.99-27.09,7.66-50.16,22.89-67.49,43.91-18.05,21.92-28.91,48.63-31.12,76.95-2.18,27.86,4.65,56.38,19.09,80.3,14.01,23.18,35.09,42.26,59.8,53.44,26.42,11.96,55.87,15.35,84.35,9.6,26.78-5.4,51.84-19.4,70.7-39.14,18.93-19.83,31.92-45.44,36.04-72.59,1.08-7.13,1.73-14.3,1.75-21.51,0-4.23-3.73-8.3-8.11-8.11-4.38.2-8.09,3.57-8.11,8.11,0,3.37-.13,6.74-.4,10.09-.13,1.66-.29,3.31-.49,4.97-.04.31-.07.61-.11.92-.13,1.19.22-1.5.05-.31-.13.92-.27,1.84-.41,2.76-1.04,6.43-2.58,12.77-4.58,18.95-.99,3.06-2.13,6.05-3.31,9.04-.14.38-.52,1.44.13-.27-.14.38-.32.74-.47,1.1-.29.63-.56,1.28-.86,1.91-.7,1.53-1.44,3.06-2.2,4.58-2.86,5.64-6.14,11.08-9.82,16.25-.86,1.21-1.75,2.38-2.63,3.57-.67.9.92-1.1.18-.23-.2.22-.36.47-.56.7-.61.77-1.24,1.53-1.87,2.29-2.02,2.41-4.12,4.76-6.32,7.02s-4.47,4.45-6.81,6.54c-1.1.99-2.22,1.95-3.35,2.88-.52.43-1.06.88-1.6,1.31-.31.25-.61.49-.92.74-1.51,1.22.92-.68,0,0-5.1,3.76-10.3,7.29-15.87,10.36-2.79,1.53-5.62,2.97-8.52,4.29-.72.32-1.46.65-2.18.97-.27.13-.54.25-.83.36,1.73-.63.67-.27.27-.13-1.59.63-3.15,1.26-4.76,1.84-6.09,2.22-12.34,3.96-18.7,5.22-1.51.31-3.03.58-4.54.81-.81.13-1.62.25-2.45.38-.45.07-1.5.36.31-.04-.5.11-1.03.13-1.55.18-3.21.36-6.45.61-9.67.74-6.72.27-13.46,0-20.12-.77-.4-.05-.85-.07-1.22-.14,1.82.4.76.11.31.04-.81-.13-1.62-.23-2.45-.38-1.62-.27-3.22-.56-4.85-.88-3.19-.65-6.36-1.4-9.47-2.29s-6.16-1.87-9.19-2.99c-1.5-.56-2.99-1.15-4.48-1.75-.38-.14-1.44-.5.27.13-.27-.11-.56-.23-.83-.36-.83-.36-1.64-.72-2.45-1.1-5.76-2.65-11.33-5.75-16.63-9.22-2.63-1.73-5.21-3.57-7.71-5.48,1.44,1.1-.18-.14-.68-.56-.54-.43-1.06-.86-1.6-1.31-1.28-1.06-2.56-2.16-3.8-3.28-4.68-4.21-9.04-8.77-13.06-13.62-.43-.52-.88-1.06-1.3-1.6-.25-.31-.49-.63-.74-.92-.72-.86.86,1.15.18.23-.99-1.35-2-2.68-2.97-4.05-1.82-2.58-3.55-5.24-5.17-7.94s-3.15-5.51-4.58-8.34c-.67-1.33-1.31-2.68-1.93-4.03-.29-.63-.58-1.28-.86-1.91-.16-.36-.34-.72-.47-1.1.68,1.82.16.4,0,0-2.4-6-4.41-12.12-5.91-18.39-.76-3.19-1.4-6.39-1.91-9.62-.13-.81-.25-1.62-.36-2.45-.14-.97.09.61.09.61,0,0-.13-1.08-.14-1.22-.2-1.75-.38-3.51-.5-5.28-.5-6.72-.49-13.47.05-20.17.13-1.55.27-3.1.45-4.65.05-.4.07-.85.14-1.22-.05.23-.27,1.82-.04.31.13-.92.27-1.84.41-2.76.52-3.22,1.19-6.43,1.96-9.6,1.51-6.18,3.51-12.19,5.89-18.08.56-1.37-.04.05-.13.27.14-.38.32-.74.47-1.1.32-.74.65-1.46.97-2.18.67-1.44,1.35-2.88,2.07-4.3,1.44-2.83,2.97-5.6,4.61-8.32s3.37-5.35,5.21-7.93c.92-1.28,1.86-2.56,2.81-3.8-.99,1.3-.07.11.38-.45.56-.68,1.12-1.37,1.68-2.05,4.03-4.83,8.43-9.37,13.13-13.55,1.1-.99,2.22-1.95,3.35-2.88.61-.5,1.21-1.01,1.84-1.5.31-.25.63-.49.92-.74.77-.63-1.22.92,0,0,2.52-1.89,5.1-3.73,7.75-5.44,5.31-3.46,10.9-6.52,16.68-9.15.63-.29,1.28-.58,1.91-.85.25-.11,1.46-.61.41-.18s.16-.05.41-.16c1.59-.63,3.17-1.26,4.77-1.84,3.03-1.1,6.11-2.07,9.2-2.94s6.3-1.62,9.49-2.25c1.51-.29,3.03-.56,4.54-.81.72-.11,1.42-.22,2.14-.32,1.73-.25-.31.07-.31.04,0,.02,1.37-.16,1.55-.18,6.68-.77,13.42-1.01,20.14-.72,3.33.14,6.66.4,9.98.81,2.11.25-1.19-.18.92.11.72.11,1.42.22,2.14.32,1.71.27,3.44.59,5.13.94,6.34,1.3,12.59,3.08,18.66,5.31,1.4.52,2.81,1.08,4.2,1.64s-.05-.04-.27-.13c.38.14.74.32,1.1.47.83.36,1.64.72,2.45,1.1,2.88,1.33,5.71,2.77,8.48,4.32,5.44,3.03,10.63,6.48,15.58,10.25-1.64-1.24.27.22.68.56.61.49,1.22.99,1.82,1.5,1.21,1.01,2.4,2.04,3.57,3.1,2.34,2.11,4.59,4.29,6.77,6.57s4.27,4.63,6.29,7.04c.5.61.99,1.22,1.5,1.84.25.31.49.61.74.92-.14-.18-1.06-1.4-.18-.23.95,1.26,1.89,2.52,2.79,3.82,3.64,5.17,6.9,10.63,9.74,16.28.72,1.42,1.4,2.86,2.05,4.3.29.63.58,1.28.85,1.91.11.25.61,1.46.18.41-.47-1.13.18.47.29.68,1.21,2.97,2.31,6,3.28,9.06,1.98,6.2,3.48,12.55,4.49,18.98.07.45.05,2.14.36,2.45-.04-.02-.2-1.57-.09-.61.04.41.11.83.14,1.22.18,1.55.32,3.1.45,4.67.27,3.35.38,6.72.4,10.09,0,4.23,3.73,8.3,8.11,8.11s8.12-3.57,8.11-8.11h0Z"/>
        <path class="cls-1" d="M288.84,169.04c0-102.47,111.12-106.45,52.33-106.45s-106.45,47.66-106.45,106.45,47.66,106.45,106.45,106.45-52.33-3.98-52.33-106.45Z"/>
        <circle class="cls-1" cx="391.55" cy="98.43" r="10.05"/>
        <circle class="cls-1" cx="414.43" cy="144.19" r="21.49"/>
        <circle class="cls-1" cx="330.22" cy="155.27" r="12.12"/>
        <circle class="cls-1" cx="367.99" cy="231.52" r="16.28"/>
        <circle cx="292.79" cy="200.31" r="13.87"/>
        <circle cx="269" cy="151.62" r="7.44"/>
        <circle cx="277.62" cy="235.46" r="7.44"/>
        <circle cx="317.29" cy="92.55" r="13.98" transform="translate(-5.76 22.71) rotate(-4.06)"/>
        <circle class="cls-1" cx="407.85" cy="201.71" r="7.28"/>
      </g>
    </g>
  </g>
</svg>