<?xml version="1.0" encoding="UTF-8"?>
<svg xmlns="http://www.w3.org/2000/svg" version="1.1" viewBox="0 0 480 345">
  <defs>
    <style>
      .cls-1 {
        fill: #fff;
      }

      .cls-2 {
        fill: #ffbf1f;
      }
    </style>
  </defs>
  <!-- Generator: Adobe Illustrator 28.7.2, SVG Export Plug-In . SVG Version: 1.2.0 Build 154)  -->
  <g>
    <g id="Livello_1">
      <g id="partialy-cloud">
        <path class="cls-2" d="M61.11,81.08c9.09,6.9,18.17,13.8,27.26,20.71,1.3.99,2.6,1.98,3.9,2.96s3.36.2,4.1-1.08c.9-1.54.22-3.12-1.08-4.1-9.09-6.9-18.17-13.8-27.26-20.71-1.3-.99-2.6-1.98-3.9-2.96s-3.36-.2-4.1,1.08c-.9,1.54-.22,3.12,1.08,4.1h0Z"/>
        <path class="cls-2" d="M139.15,32.91c1.55,11.31,3.09,22.61,4.64,33.92.22,1.62.44,3.24.66,4.86s2.28,2.48,3.69,2.1c1.73-.48,2.32-2.08,2.1-3.69-1.55-11.31-3.09-22.61-4.64-33.92-.22-1.62-.44-3.24-.66-4.86s-2.28-2.48-3.69-2.1c-1.73.48-2.32,2.08-2.1,3.69h0Z"/>
        <path class="cls-2" d="M106.71,214.18c-6.9,9.09-13.8,18.17-20.71,27.26-.99,1.3-1.98,2.6-2.96,3.9s-.2,3.36,1.08,4.1c1.54.9,3.12.22,4.1-1.08,6.9-9.09,13.8-18.17,20.71-27.26.99-1.3,1.98-2.6,2.96-3.9s.2-3.36-1.08-4.1c-1.54-.9-3.12-.22-4.1,1.08h0Z"/>
        <path class="cls-2" d="M228.4,53.97c-6.9,9.09-13.8,18.17-20.71,27.26-.99,1.3-1.98,2.6-2.96,3.9s-.2,3.36,1.08,4.1c1.54.9,3.12.22,4.1-1.08,6.9-9.09,13.8-18.17,20.71-27.26.99-1.3,1.98-2.6,2.96-3.9s.2-3.36-1.08-4.1c-1.54-.9-3.12-.22-4.1,1.08h0Z"/>
        <path class="cls-2" d="M77.23,159.25c-11.31,1.55-22.61,3.09-33.92,4.64-1.62.22-3.24.44-4.86.66s-2.48,2.28-2.1,3.69c.48,1.73,2.08,2.32,3.69,2.1,11.31-1.55,22.61-3.09,33.92-4.64,1.62-.22,3.24-.44,4.86-.66s2.48-2.28,2.1-3.69c-.48-1.73-2.08-2.32-3.69-2.1h0Z"/>
        <path class="cls-2" d="M193.92,103.69c-9.75-7.36-21.72-11.52-33.93-11.87s-23.78,2.95-33.73,9.37c-10.59,6.82-18.73,16.9-23.32,28.61s-5.1,23.59-2.35,35.2c2.78,11.75,9.28,22.61,18.35,30.58,9.36,8.23,20.99,13.32,33.38,14.64,11.82,1.26,23.99-1.26,34.43-6.92,10.83-5.87,19.79-15.3,25.09-26.42s6.96-23.27,5.06-35.29-7.54-23.06-15.88-31.68c-2.19-2.27-4.58-4.3-7.08-6.21-1.29-.98-3.36-.2-4.1,1.08-.9,1.54-.22,3.12,1.08,4.1,17.7,13.53,24.93,37.32,18.32,58.37-3.27,10.43-10.16,20.21-18.93,26.69-4.4,3.25-9.23,5.83-14.14,7.54-5.34,1.86-10.42,2.83-15.84,3.02-11.03.4-21.74-2.53-31.07-8.58-9.21-5.96-16.64-15.03-20.53-25.03s-4.82-21.16-2.44-31.55c2.52-11,8.41-20.85,16.94-28.38,16.53-14.57,41.28-17.24,60.58-6.7,2.48,1.36,4.85,2.91,7.11,4.61,1.29.98,3.35.21,4.1-1.08.9-1.54.22-3.13-1.08-4.1Z"/>
        <path d="M178.58,298.11h197.81c20.87,0,37.79-16.92,37.79-37.79s-27.02-50.54-27.02-51.81c0-27.44-45.02-58.1-47.64-57.68-8.91-37.47-45.76-60.16-85.97-60.16-47.02,0-105.02,51.85-105.02,98.87,0,.54.03,1.09.05,1.63-23.57,5.92-31.69,36.73-31.69,62.13,0,29.99,25.71,59.59,55.69,59.59l12.93-14.77"/>
        <path d="M338.95,303.5h64c20.87,0,37.79-16.92,37.79-37.79s-16.92-37.79-37.79-37.79h-2.42c.09-1.25.16-2.48.16-3.74,0-27.44-22.24-49.67-49.67-49.67-2.73,0-5.4.22-8.03.65-8.91-37.47-42.58-65.34-82.79-65.34-47.02,0-85.12,38.11-85.12,85.12,0,.54.03,1.09.05,1.63-23.57,5.92-41.03,27.25-41.03,52.66,0,29.99,24.3,54.28,54.28,54.28h26.63"/>
        <path d="M402.95,303.5c20.87,0,37.79-16.92,37.79-37.79s-16.92-37.79-37.79-37.79h-2.42c.09-1.25.16-2.48.16-3.74,0-27.44-22.24-49.67-49.67-49.67-2.73,0-5.4.22-8.03.65-8.91-37.47-42.58-65.34-82.79-65.34-47.02,0-85.12,38.11-85.12,85.12,0,.54.03,1.09.05,1.63-23.57,5.92-41.03,27.25-41.03,52.66,0,29.99,24.3,54.28,54.28,54.28h214.56Z"/>
        <path class="cls-1" d="M402.95,306.5c17.68-.1,33.63-11.74,38.95-28.63s-1.44-35.9-16.1-45.94c-7.58-5.19-16.22-7.01-25.27-7.01l3,3c.88-12.23-2.57-24.69-9.84-34.6s-17.06-16.71-28.54-19.9c-7.49-2.08-15.29-2.36-22.96-1.16l3.69,2.1c-3.95-16.44-12.69-31.62-24.95-43.27s-27.92-19.76-44.61-22.8-34.42-1.27-50.22,5.39-28.09,16.82-37.64,30.08-15.25,29.54-16.23,46.02c-.13,2.26-.19,4.52-.11,6.78l2.2-2.89c-19.81,5.06-35.87,20.74-41.23,40.5s.31,40.88,14.5,55.27c10.92,11.08,25.9,17.06,41.39,17.06,4.98,0,9.97,0,14.95,0h199.01c3.86,0,3.87-6,0-6h-210.88c-1.2,0-2.39,0-3.59,0-7.69-.02-15.36-1.66-22.3-5.03-16.59-8.07-27.99-24.76-29-43.25-1.06-19.33,8.96-37.92,25.78-47.55,4.08-2.34,8.42-4.05,12.97-5.22,1.24-.32,2.25-1.6,2.2-2.89-.56-15.65,3.97-31.46,12.17-44.75s19.45-23.39,32.95-30.24c14.15-7.18,30.27-9.95,46.03-8.28,15.68,1.66,30.93,8.12,43.07,18.18,12.19,10.1,21.42,23.59,26.17,38.71.6,1.9,1.12,3.83,1.59,5.77.41,1.7,2.13,2.34,3.69,2.1,11.36-1.78,23.1.78,32.73,7.03,8.6,5.58,15.29,14.1,18.62,23.81,2.11,6.15,2.87,12.56,2.4,19.04-.12,1.62,1.47,3,3,3,3.02,0,6.01.02,8.98.61,3.63.72,7.12,1.96,10.35,3.77,6.44,3.6,11.55,9.15,14.69,15.82,6.51,13.81,2.69,30.64-8.61,40.69-6.31,5.62-14.58,8.63-23,8.68-3.86.02-3.87,6.02,0,6Z"/>
      </g>
    </g>
  </g>
</svg>