<?xml version="1.0" encoding="UTF-8"?>
<svg xmlns="http://www.w3.org/2000/svg" version="1.1" viewBox="0 0 480 345">
  <defs>
    <style>
      .cls-1 {
        fill: #fff;
      }
    </style>
  </defs>
  <!-- Generator: Adobe Illustrator 28.7.2, SVG Export Plug-In . SVG Version: 1.2.0 Build 154)  -->
  <g>
    <g id="Livello_2">
      <g id="night">
        <path class="cls-1" d="M461.78,262.76h-156.32c-2.38,0-4.78-.02-7.17,0-12.48.1-23.36,7.74-27.81,19.36-1.23,3.2-1.76,6.67-1.81,10.08-.05,3.76,3.34,7.38,7.2,7.2s7.15-3.17,7.2-7.2c0-.54-.16-1.74.11-2.21-.45.77-.19,1.07-.03.3.06-.35.13-.7.21-1.06.16-.69.34-1.38.56-2.05.06-.22.22-.88.35-.99-.48.45-.5,1.02,0,.03.32-.62.62-1.23.99-1.84.18-.3.37-.59.56-.88.13-.21.72-1.17.19-.32s.06-.08.24-.29c.22-.26.45-.53.69-.77.53-.56,1.09-1.1,1.68-1.62.24-.21.53-.5.8-.66-.18.11-1.3.88-.21.21.59-.37,1.17-.75,1.78-1.09s1.23-.74,1.87-.93c-1.66.48.46-.1,1.01-.26.69-.19,1.38-.37,2.08-.5,1.82-.34-1.09.03.78-.08.48-.03.96-.03,1.44-.05,2.03-.02,4.06,0,6.1,0h133.58c7.86,0,15.76.21,23.62,0h.32c3.76,0,7.38-3.31,7.2-7.2s-3.17-7.2-7.2-7.2h0l-.02-.02Z"/>
        <path class="cls-1" d="M435.76,213.58h-84.59c-3.76,0-7.38,3.31-7.2,7.2s3.17,7.2,7.2,7.2h84.59c3.76,0,7.38-3.31,7.2-7.2s-3.17-7.2-7.2-7.2h0Z"/>
        <path class="cls-1" d="M449.84,159.42h-65.69c-3.76,0-7.38,3.31-7.2,7.2s3.17,7.2,7.2,7.2h65.69c3.76,0,7.38-3.31,7.2-7.2s-3.17-7.2-7.2-7.2h0Z"/>
        <path class="cls-1" d="M324.96,213.58h-11.15c-1.84,0-3.79.8-5.09,2.11s-2.19,3.3-2.11,5.09.69,3.79,2.11,5.09,3.14,2.11,5.09,2.11h11.15c1.84,0,3.79-.8,5.09-2.11s2.19-3.3,2.11-5.09-.69-3.79-2.11-5.09-3.14-2.11-5.09-2.11h0Z"/>
        <path class="cls-1" d="M391.51,166.62c-.14-25.74-17.79-49.07-42.83-55.61-8.14-2.13-16.43-2.27-24.72-.98l8.86,5.02c-8.46-35.1-37.79-63.39-73.45-69.82-18.42-3.33-37.18-1.26-54.4,6.08-15.87,6.77-29.41,18.08-39.39,32.1-11.25,15.78-17.58,35.84-16.9,55.26l5.28-6.94c-19.71,5.06-35.54,19.58-42.86,38.46-7.33,18.88-4.56,39.7,6.18,55.85,10.85,16.3,28.59,26.62,48.13,27.98,4.18.29,8.42.14,12.59.14h136.51c14.51,0,29.06.22,43.58,0h.64c3.76,0,7.38-3.31,7.2-7.2s-3.17-7.2-7.2-7.2h-189.34c-.77,0-1.54,0-2.29-.05-1.1-.05-2.21-.13-3.31-.24-.35-.03-2.24-.18-.27,0-.72-.06-1.44-.22-2.14-.35-1.95-.35-3.87-.82-5.76-1.38-1.02-.3-2.03-.64-3.04-.99-.5-.18-.99-.38-1.49-.56-.74-.3-.66-.26.26.13-.32-.14-.64-.29-.96-.43-1.92-.86-3.79-1.84-5.58-2.93-.82-.5-1.63-1.01-2.43-1.54-.37-.24-.72-.5-1.07-.74-.3-.22-2.19-1.65-.64-.43-3.44-2.7-6.48-5.78-9.23-9.15-.24-.29-.74-1.09.18.22-.3-.43-.62-.85-.93-1.26-.61-.85-1.18-1.73-1.74-2.61-1.2-1.94-2.29-3.94-3.25-6-.22-.48-.46-.96-.64-1.44.67,1.79.05.08-.06-.24-.32-.83-.61-1.66-.9-2.51-.72-2.21-1.31-4.48-1.74-6.75-.1-.53-.19-1.07-.29-1.6-.06-.43-.56-2.06-.05-.26-.29-1.01-.24-2.26-.3-3.3-.14-2.27-.13-4.56,0-6.83.06-1.15.19-2.29.32-3.42-.22,1.9.02,0,.06-.34.1-.56.19-1.12.3-1.66.45-2.29,1.06-4.53,1.81-6.74.32-.96.69-1.9,1.06-2.85.66-1.74-.66,1.38.13-.3.24-.5.45-.99.69-1.49,1.02-2.13,2.21-4.19,3.5-6.18.59-.91,1.23-1.79,1.87-2.67.77-1.06,0,0-.13.16.34-.42.67-.85,1.02-1.26,1.5-1.79,3.14-3.5,4.86-5.09.8-.74,1.62-1.44,2.45-2.13.24-.21,1.71-1.3.26-.22.43-.32.86-.66,1.31-.96,1.78-1.26,3.63-2.42,5.54-3.46.96-.53,1.94-1.02,2.93-1.49.5-.24.99-.45,1.5-.67-1.7.75.02,0,.32-.11,2.08-.8,4.19-1.46,6.35-2.02,2.96-.77,5.39-3.84,5.28-6.94-.14-4.18.16-8.34.62-12.48.13-1.15-.29,1.79,0,0,.08-.54.16-1.09.26-1.62.14-.9.32-1.79.5-2.69.43-2.13.93-4.22,1.52-6.3.48-1.73,1.02-3.42,1.62-5.12.35-1.01.72-2,1.12-3.01.13-.34.27-.66.4-.99.3-.74.27-.66-.11.26.14-.32.29-.66.42-.98,1.57-3.54,3.38-6.98,5.41-10.27.96-1.57,1.98-3.1,3.04-4.59.56-.78,1.14-1.55,1.71-2.32-1.01,1.36-.27.34,0,0,.38-.48.77-.96,1.15-1.42,2.45-2.96,5.09-5.74,7.9-8.35,1.41-1.3,2.86-2.56,4.35-3.76.27-.22.54-.43.82-.66,1.41-1.12-1.25.91.21-.14.85-.62,1.7-1.25,2.54-1.84,3.17-2.21,6.5-4.19,9.92-5.95,1.71-.88,3.47-1.81,5.28-2.48-1.86.69.78-.3,1.23-.48,1.07-.42,2.16-.82,3.26-1.18,3.82-1.3,7.76-2.32,11.73-3.07.9-.16,1.79-.32,2.69-.46.35-.05,2.19-.42.26-.05.35-.06.74-.1,1.09-.13,2.21-.26,4.42-.43,6.64-.51,4.21-.16,8.42-.02,12.59.42.48.05.94.11,1.42.16,1.17.13-1.78-.29.06,0,1.02.16,2.05.32,3.07.51,2.11.38,4.22.86,6.3,1.41,1.97.51,3.92,1.1,5.86,1.76.86.3,1.74.61,2.61.93.51.19,1.02.4,1.54.59.38.14,1.94.83.32.11,3.68,1.62,7.25,3.42,10.69,5.5,1.7,1.04,3.38,2.13,4.99,3.28.74.53,1.46,1.06,2.19,1.6,1.49,1.1-1.17-.96.26.21.42.34.85.67,1.26,1.02,3.47,2.88,6.74,6.02,9.73,9.41.72.82,1.42,1.63,2.11,2.48.34.42.67.85,1.02,1.26.91,1.14-.75-1.02.35.48,1.34,1.82,2.62,3.68,3.84,5.6s2.26,3.74,3.26,5.66c.56,1.06,1.09,2.11,1.58,3.18.19.42.38.83.58,1.25.14.32,1.1,2.58.37.8,1.76,4.27,3.2,8.67,4.29,13.17.99,4.1,5.1,5.62,8.86,5.02.18-.03,1.41-.18.27-.05.37-.05.74-.08,1.1-.11.86-.08,1.73-.14,2.59-.18,1.68-.08,3.36-.06,5.04.03.64.03,1.3.08,1.94.14.69.06,2.05.1.54.03,1.33.06,2.72.45,4,.74,2.62.59,5.12,1.5,7.65,2.4.77.27-.48-.21-.5-.21.3.08.67.29.96.43.56.26,1.12.53,1.66.8,1.17.59,2.32,1.23,3.44,1.92s2.21,1.41,3.26,2.18c.35.26,1.78,1.46.42.29.53.45,1.09.88,1.62,1.33,1.97,1.71,3.81,3.57,5.5,5.55.18.21,1.41,1.68.75.9-.59-.72.48.66.69.94.77,1.07,1.49,2.16,2.16,3.28.64,1.06,1.23,2.13,1.78,3.22.27.54.54,1.1.8,1.66.13.29.35.66.43.96-.22-.83-.34-.86-.02,0,1.04,2.77,1.9,5.58,2.48,8.48.14.72.26,1.42.38,2.14.19,1.15-.14-.24-.03-.29-.03.02.11.99.13,1.09.16,1.66.24,3.33.24,5.01.02,3.76,3.3,7.38,7.2,7.2s7.22-3.17,7.2-7.2h0l-.05.02Z"/>
        <path class="cls-1" d="M416.99,188.65h-129.76c-3.76,0-7.38,3.31-7.2,7.2s3.17,7.2,7.2,7.2h129.76c3.76,0,7.38-3.31,7.2-7.2s-3.17-7.2-7.2-7.2h0Z"/>
        <path class="cls-1" d="M300.53,188.65h-13.28c-.54,0-1.04-.05-1.55-.06-1.73-.03,1.58.37-.11,0-.5-.11-1.01-.19-1.5-.32-.75-.19-1.49-.45-2.22-.67-.45-.14-1.6-.35.02.05-.3-.08-.7-.32-.96-.45-1.62-.78-3.12-1.76-4.59-2.78s.77.69-.06-.05c-.34-.3-.7-.59-1.06-.9-.62-.56-1.23-1.14-1.82-1.73s-1.17-1.22-1.71-1.86c-.37-.43-.72-.86-1.09-1.3.78.94.14.21-.24-.34-.98-1.38-1.87-2.8-2.69-4.27-.45-.82-.83-1.65-1.23-2.48-.16-.32-.48-1.26.08.21-.19-.51-.4-1.01-.58-1.52-.56-1.58-.94-3.2-1.31-4.83-.18-.78-.64-1.04-.02.14-.1-.19-.08-.75-.1-1.01-.08-1.02-.11-2.05-.05-3.09,0-.14.08-1.09.08-1.09.1.03-.27,1.54.02,0,.16-.82.35-1.62.59-2.4.11-.4,1.2-3.06.43-1.39.38-.85.8-1.68,1.26-2.5s.98-1.62,1.52-2.4c.22-.3.45-.62.67-.93-.93,1.25-.13.19.13-.11,1.31-1.55,2.78-2.9,4.3-4.24.24-.21,1.09-.8-.1.05.38-.29.77-.56,1.17-.83.7-.48,1.44-.94,2.18-1.38.82-.48,1.68-.88,2.51-1.33.29-.16,1.26-.54-.18.05.51-.21,1.04-.42,1.57-.59.86-.3,1.76-.56,2.66-.78.35-.08.72-.16,1.07-.24.1-.02,1.87-.32.66-.14s.54-.03.66-.05c.35-.03.72-.05,1.07-.05,1.01-.03,2,0,3.01.1.11,0,.96.1.96.1-.03.13-1.62-.27-.5-.06.77.14,1.52.29,2.29.48s1.46.42,2.18.66c.16.06.72.34.85.32-1.02-.45-1.2-.51-.5-.19l.4.19c.66.32,1.3.69,1.92,1.07.29.18,2.08,1.36,1.06.69-.96-.62.64.59.93.86.24.24,1.6,1.97,1.81,1.95-.1,0-1.02-1.46-.3-.38.18.26.35.5.51.75.43.66.82,1.31,1.17,2,.14.29.27.58.42.85.78,1.47-.51-1.54.03.06.27.8.56,1.58.8,2.38s.45,1.7.61,2.56c.06.35.13.72.19,1.07.34,1.78-.06-1.12,0,.03.13,1.92.24,3.79.19,5.73-.03,1.17.35-1.66-.03.1-.13.64-.37,1.23-.53,1.86-.3,1.15.18-.72.3-.69,0,0-.46.91-.5.98-.11.21-.26.42-.37.62-.62,1.12-.24.06.29-.29-.51.35-.99,1.14-1.46,1.57-.18.16-.37.3-.53.46-.93.91,1.44-.93.32-.26-.56.34-1.1.72-1.68,1.02-.27.14-.54.26-.8.4-1.17.64,1.66-.56.38-.16s-2.56.75-3.89,1.04c-1.1.24.75-.11.82-.1-.34-.05-.75.08-1.09.1-.74.05-1.46.06-2.19.03-.5-.02-1.34-.29-1.81-.14,1.14-.35,1.63.3.5.03-.34-.08-.69-.14-1.04-.22-.56-.14-1.1-.34-1.66-.51-.24-.08-1.36-.53-.1-.02s-.1-.08-.35-.22c-.48-.26-.93-.59-1.41-.86-1.07-.62,1.14,1.04.56.43-.22-.24-.48-.43-.72-.66-.19-.19-.35-.4-.54-.59-.83-.82.86,1.47.34.43-.3-.61-1.31-2.69-.34-.29-1.42-3.47-4.85-6.32-8.86-5.02-3.34,1.09-6.56,5.12-5.02,8.86,2.78,6.75,8.42,11.31,15.66,12.64,6.8,1.25,14.34.32,20.19-3.57,6.7-4.45,10.19-11.5,9.97-19.52-.24-8.9-2.96-17.97-9.38-24.4-5.92-5.92-14.27-8.77-22.56-8.74-9.6.03-18.83,4.54-25.73,11.06s-11.9,16.06-11.5,25.79c.4,9.73,4.64,18.22,10.54,25.49,6.43,7.92,16.03,13.84,26.42,14.06,4.51.1,9.04,0,13.55,0,3.76,0,7.38-3.31,7.2-7.2s-3.17-7.2-7.2-7.2h0l.03.06Z"/>
      </g>
    </g>
  </g>
</svg>